<svg width="270" height="270" viewBox="0 0 270 270" fill="none" xmlns="http://www.w3.org/2000/svg">
<path d="M135 0L160.846 30.1383L197.738 15.4634L206.617 54.1608L246.103 58.3113L235.982 96.7027L269.016 118.728L242.213 148.018L261.227 182.872L223.882 196.351L224.522 236.049L185.19 230.629L167.308 266.077L135 243L102.692 266.077L84.8099 230.629L45.4784 236.049L46.1177 196.351L8.7728 182.872L27.7874 148.018L0.984299 118.728L34.0182 96.7027L23.8972 58.3113L63.3828 54.1608L72.2624 15.4634L109.154 30.1383L135 0Z" fill="#FF9F59"/>
<path d="M135 39L153.762 60.5433L180.543 50.0535L186.989 77.715L215.652 80.6818L208.305 108.125L232.285 123.868L212.828 144.805L226.632 169.719L199.522 179.355L199.986 207.731L171.434 203.857L158.453 229.196L135 212.7L111.547 229.196L98.5657 203.857L70.014 207.731L70.4781 179.355L43.3684 169.719L57.1716 144.805L37.7145 123.868L61.6947 108.125L54.3476 80.6818L83.0112 77.715L89.4571 50.0535L116.238 60.5433L135 39Z" fill="#FF8C38"/>
</svg>
